<?xml version="1.0" encoding="UTF-8"?>
<svg id="Livello_2" data-name="Livello 2" xmlns="http://www.w3.org/2000/svg" viewBox="0 0 246.2 327.29">
  <defs>
    <style>
      .cls-1 {
        fill: #333130;
        stroke-width: 0px;
      }
    </style>
  </defs>
  <g id="Livello_2-2" data-name="Livello 2">
    <g>
      <path class="cls-1" d="M229.53,233.04V19.3c0-14.62,16.67-19.3,16.67-19.3h-37.43l-85.96,190.06L37.13,0H0c6.43,3.51,16.67,11.11,16.67,18.42v288.3c0,14.62-16.67,19.3-16.67,19.3h36.55s-16.37-4.68-16.67-19.3l.29-293.57,92.98,206.72L208.77,8.77v224.27c-.29,14.62-16.67,19.3-16.67,19.3h54.09s-16.67-4.68-16.67-19.3Z"/>
      <path class="cls-1" d="M218.76,273.25c-1.48,24.35-2.67,25.55-27.02,27.02,24.35,1.48,25.55,2.67,27.02,27.02,1.48-24.35,2.67-25.55,27.02-27.02-24.35-1.48-25.55-2.67-27.02-27.02Z"/>
    </g>
  </g>
</svg>